<svg width="49" height="48" viewBox="0 0 49 48" fill="none" xmlns="http://www.w3.org/2000/svg">
<path d="M34.7403 5.5H13.9567C11.4632 5.5 9.07172 6.50089 7.30849 8.28249C5.54526 10.0641 4.55469 12.4804 4.55469 15V33C4.55469 34.2476 4.79788 35.4829 5.27038 36.6355C5.74287 37.7881 6.43543 38.8354 7.30849 39.7175C9.07172 41.4991 11.4632 42.5 13.9567 42.5H34.7403C37.2322 42.4947 39.6206 41.4921 41.3827 39.7117C43.1448 37.9312 44.1371 35.5179 44.1423 33V15C44.1371 12.4821 43.1448 10.0688 41.3827 8.28832C39.6206 6.50787 37.2322 5.50528 34.7403 5.5ZM27.5155 22.14C26.5417 22.7012 25.4399 22.9963 24.3188 22.9963C23.1977 22.9963 22.096 22.7012 21.1221 22.14L7.56335 14.28C7.73867 12.6906 8.48773 11.2223 9.66726 10.1559C10.8468 9.08957 12.374 8.5 13.9567 8.5H34.7403C36.3218 8.50438 37.8466 9.09546 39.0252 10.161C40.2039 11.2265 40.9542 12.6923 41.1337 14.28L27.5155 22.14Z" fill="#E6E6E6"/>
</svg>
