<svg width="49" height="48" viewBox="0 0 49 48" fill="none" xmlns="http://www.w3.org/2000/svg">
<path d="M42.1207 6.198C40.6698 4.732 38.924 4 36.8813 4H12.1648C10.122 4 8.37623 4.732 6.92534 6.198C5.47445 7.664 4.75 9.428 4.75 11.492V36.466C4.75 38.53 5.47445 40.294 6.92534 41.76C8.37623 43.226 10.122 43.958 12.1648 43.958H17.9327C18.3088 43.958 18.5918 43.944 18.7818 43.918C19.0029 43.8732 19.2025 43.7541 19.3479 43.58C19.536 43.38 19.631 43.09 19.631 42.71L19.6171 40.94C19.6092 39.812 19.6053 38.92 19.6053 38.26L19.0114 38.364C18.6354 38.434 18.1603 38.464 17.5843 38.456C16.9839 38.4448 16.3855 38.3839 15.7949 38.274C15.1663 38.1567 14.5745 37.8893 14.0689 37.494C13.5394 37.0893 13.1445 36.5312 12.9367 35.894L12.6794 35.294C12.4625 34.8207 12.19 34.3755 11.8679 33.968C11.4997 33.482 11.1256 33.154 10.7475 32.98L10.5694 32.85C10.4452 32.7601 10.3322 32.6553 10.2329 32.538C10.1381 32.4291 10.06 32.3064 10.0013 32.174C9.94983 32.052 9.99338 31.952 10.13 31.874C10.2685 31.794 10.5159 31.756 10.8782 31.756L11.3928 31.836C11.7352 31.904 12.1608 32.112 12.6655 32.458C13.1763 32.8099 13.603 33.2724 13.9145 33.812C14.3104 34.522 14.7855 35.064 15.3436 35.438C15.9018 35.81 16.464 35.998 17.0301 35.998C17.5962 35.998 18.0851 35.954 18.4988 35.868C18.8988 35.7844 19.2876 35.6528 19.6567 35.476C19.8111 34.316 20.2307 33.42 20.9176 32.796C20.0276 32.7078 19.1456 32.5514 18.2791 32.328C17.4335 32.0933 16.6202 31.7526 15.8583 31.314C15.0611 30.8755 14.3569 30.2829 13.7859 29.57C13.2376 28.876 12.7863 27.966 12.434 26.84C12.0836 25.712 11.9074 24.41 11.9074 22.936C11.9074 20.838 12.5844 19.052 13.9403 17.576C13.3069 16 13.3662 14.23 14.1204 12.272C14.6192 12.114 15.3575 12.232 16.3353 12.622C17.3131 13.012 18.0297 13.346 18.4849 13.622C18.9402 13.902 19.3044 14.136 19.5795 14.326C21.1887 13.8735 22.8517 13.6461 24.522 13.65C26.2223 13.65 27.8692 13.876 29.4665 14.326L30.4443 13.702C31.1965 13.2457 31.9898 12.8626 32.8137 12.558C33.7242 12.21 34.417 12.116 34.8999 12.272C35.6719 14.232 35.7392 16 35.1038 17.578C36.4597 19.052 37.1386 20.838 37.1386 22.938C37.1386 24.412 36.9625 25.718 36.6101 26.852C36.2598 27.988 35.8045 28.898 35.2463 29.584C34.6652 30.2878 33.9581 30.8747 33.162 31.314C32.3307 31.782 31.5231 32.12 30.7413 32.328C29.8748 32.5521 28.9928 32.7092 28.1027 32.798C28.9935 33.578 29.4408 34.808 29.4408 36.49V42.71C29.4408 43.004 29.4824 43.242 29.5695 43.424C29.6095 43.5117 29.6666 43.5903 29.7373 43.6553C29.808 43.7202 29.891 43.7701 29.9812 43.802C30.1712 43.87 30.3375 43.914 30.4839 43.93C30.6304 43.95 30.8402 43.956 31.1134 43.956H36.8813C38.924 43.956 40.6698 43.224 42.1207 41.758C43.5696 40.294 44.2961 38.528 44.2961 36.464V11.492C44.2961 9.428 43.5716 7.664 42.1207 6.198Z" fill="#E6E6E6"/>
</svg>
