<svg width="48" height="48" viewBox="0 0 48 48" fill="none" xmlns="http://www.w3.org/2000/svg">
<path d="M25.986 4C28.2128 4.006 29.343 4.018 30.3189 4.046L30.7029 4.06C31.1462 4.076 31.5837 4.096 32.1122 4.12C34.2182 4.22 35.6553 4.556 36.9161 5.05C38.2225 5.558 39.3231 6.246 40.4236 7.356C41.4305 8.35546 42.2094 9.56494 42.7058 10.9C43.1947 12.174 43.5273 13.626 43.6262 15.756C43.65 16.288 43.6698 16.73 43.6856 17.18L43.6975 17.568C43.7272 18.552 43.7391 19.694 43.743 21.944L43.745 23.436V26.056C43.7498 27.5148 43.7346 28.9736 43.6995 30.432L43.6876 30.82C43.6718 31.27 43.652 31.712 43.6282 32.244C43.5292 34.374 43.1928 35.824 42.7058 37.1C42.2094 38.4351 41.4305 39.6445 40.4236 40.644C39.4344 41.6614 38.2374 42.4484 36.9161 42.95C35.6553 43.444 34.2182 43.78 32.1122 43.88L30.7029 43.94L30.3189 43.952C29.343 43.98 28.2128 43.994 25.986 43.998L24.5094 44H21.9184C20.4739 44.0051 19.0295 43.9898 17.5855 43.954L17.2015 43.942C16.7316 43.924 16.2618 43.9034 15.7922 43.88C13.6861 43.78 12.2491 43.444 10.9862 42.95C9.66566 42.4481 8.46934 41.6611 7.48076 40.644C6.47314 39.6447 5.69359 38.4352 5.19655 37.1C4.70764 35.826 4.37511 34.374 4.27614 32.244L4.21676 30.82L4.20686 30.432C4.17037 28.9736 4.15388 27.5148 4.15738 26.056V21.944C4.1519 20.4852 4.16641 19.0264 4.20092 17.568L4.21478 17.18C4.23061 16.73 4.25041 16.288 4.27416 15.756C4.37313 13.626 4.70566 12.176 5.19457 10.9C5.69277 9.5644 6.47369 8.35487 7.48274 7.356C8.47075 6.3391 9.66637 5.55215 10.9862 5.05C12.2491 4.556 13.6841 4.22 15.7922 4.12C16.3187 4.096 16.7581 4.076 17.2015 4.06L17.5855 4.048C19.0288 4.01247 20.4726 3.99713 21.9164 4.002L25.986 4ZM23.9512 14C21.3264 14 18.809 15.0536 16.953 16.9289C15.097 18.8043 14.0543 21.3478 14.0543 24C14.0543 26.6522 15.097 29.1957 16.953 31.0711C18.809 32.9464 21.3264 34 23.9512 34C26.576 34 29.0933 32.9464 30.9494 31.0711C32.8054 29.1957 33.8481 26.6522 33.8481 24C33.8481 21.3478 32.8054 18.8043 30.9494 16.9289C29.0933 15.0536 26.576 14 23.9512 14ZM23.9512 18C24.731 17.9999 25.5032 18.1549 26.2237 18.4563C26.9442 18.7577 27.5989 19.1996 28.1504 19.7567C28.7019 20.3137 29.1394 20.9751 29.4379 21.703C29.7365 22.4309 29.8902 23.2111 29.8903 23.999C29.8905 24.7869 29.737 25.5672 29.4387 26.2952C29.1404 27.0232 28.7031 27.6847 28.1518 28.2419C27.6005 28.7992 26.9459 29.2412 26.2255 29.5429C25.5051 29.8445 24.733 29.9999 23.9532 30C22.3783 30 20.8679 29.3679 19.7543 28.2426C18.6406 27.1174 18.015 25.5913 18.015 24C18.015 22.4087 18.6406 20.8826 19.7543 19.7574C20.8679 18.6321 22.3783 18 23.9532 18M34.3449 11C33.6887 11 33.0594 11.2634 32.5954 11.7322C32.1314 12.2011 31.8707 12.837 31.8707 13.5C31.8707 14.163 32.1314 14.7989 32.5954 15.2678C33.0594 15.7366 33.6887 16 34.3449 16C35.0011 16 35.6305 15.7366 36.0945 15.2678C36.5585 14.7989 36.8191 14.163 36.8191 13.5C36.8191 12.837 36.5585 12.2011 36.0945 11.7322C35.6305 11.2634 35.0011 11 34.3449 11Z" fill="#E6E6E6"/>
</svg>
