<svg width="34" height="32" viewBox="0 0 34 32" fill="none" xmlns="http://www.w3.org/2000/svg">
<path d="M29.7892 0.624939C30.7476 0.624939 31.6666 0.985493 32.3442 1.62728C33.0219 2.26908 33.4026 3.13953 33.4026 4.04716V28.0027C33.4026 28.9103 33.0219 29.7808 32.3442 30.4226C31.6666 31.0644 30.7476 31.4249 29.7892 31.4249H4.4959C3.53759 31.4249 2.61852 31.0644 1.94089 30.4226C1.26326 29.7808 0.882568 28.9103 0.882568 28.0027V4.04716C0.882568 3.13953 1.26326 2.26908 1.94089 1.62728C2.61852 0.985493 3.53759 0.624939 4.4959 0.624939H29.7892ZM28.8859 27.1472V18.0783C28.8859 16.5988 28.2654 15.18 27.1608 14.1339C26.0563 13.0878 24.5582 12.5 22.9962 12.5C21.4605 12.5 19.6719 13.3898 18.8047 14.7245V12.8252H13.7641V27.1472H18.8047V18.7114C18.8047 17.3938 19.9248 16.3158 21.316 16.3158C21.9868 16.3158 22.6301 16.5682 23.1045 17.0175C23.5788 17.4667 23.8453 18.076 23.8453 18.7114V27.1472H28.8859ZM7.89244 10.1387C8.69742 10.1387 9.46944 9.83585 10.0386 9.29675C10.6079 8.75764 10.9276 8.02646 10.9276 7.26405C10.9276 5.67272 9.57264 4.37227 7.89244 4.37227C7.08266 4.37227 6.30605 4.67694 5.73345 5.21925C5.16085 5.76157 4.83917 6.4971 4.83917 7.26405C4.83917 8.85538 6.21224 10.1387 7.89244 10.1387ZM10.4037 27.1472V12.8252H5.39924V27.1472H10.4037Z" fill="#FAFAFA"/>
</svg>
