<?xml version="1.0" encoding="UTF-8"?>
<svg id="Layer_2" data-name="Layer 2" xmlns="http://www.w3.org/2000/svg" viewBox="0 0 440.89 162.13">
  <defs>
    <style>
      .cls-1 {
        fill: none;
      }

      .cls-1, .cls-2, .cls-3, .cls-4, .cls-5, .cls-6, .cls-7 {
        stroke-width: 0px;
      }

      .cls-2 {
        fill: #6885d1;
      }

      .cls-3 {
        fill: #db388f;
      }

      .cls-4 {
        fill: #cbdf1e;
      }

      .cls-5 {
        fill: #5652a3;
      }

      .cls-6 {
        fill: #6885d1;
      }

      .cls-7 {
        fill: #e6e6e6;
      }
    </style>
  </defs>
  <g id="Logo">
    <polygon class="cls-1" points="131.02 102.75 131.02 148.97 133.39 148.97 133.39 106.85 163.47 148.97 165.84 148.97 165.84 102.75 163.47 102.75 163.47 144.87 133.39 102.75 131.02 102.75"/>
    <path class="cls-1" d="M102.13,109.41c-2.13-2.13-4.6-3.8-7.43-5.01-2.83-1.21-5.85-1.82-9.07-1.82s-6.24.61-9.07,1.82c-2.83,1.22-5.3,2.89-7.43,5.01-2.13,2.13-3.8,4.6-5.01,7.43-1.22,2.83-1.82,5.85-1.82,9.07s.61,6.24,1.82,9.07c1.22,2.83,2.89,5.3,5.01,7.43,2.13,2.13,4.6,3.8,7.43,5.01,2.83,1.22,5.85,1.82,9.07,1.82s6.24-.61,9.07-1.82c2.83-1.21,5.3-2.89,7.43-5.01,2.13-2.13,3.8-4.6,5.01-7.43,1.22-2.83,1.82-5.85,1.82-9.07s-.61-6.24-1.82-9.07c-1.22-2.83-2.89-5.3-5.01-7.43ZM104.96,134.06c-1.09,2.52-2.6,4.74-4.51,6.66-1.91,1.91-4.13,3.42-6.65,4.51-2.52,1.09-5.24,1.64-8.16,1.64s-5.64-.55-8.16-1.64c-2.52-1.09-4.74-2.6-6.65-4.51-1.91-1.91-3.42-4.13-4.51-6.66-1.09-2.52-1.64-5.24-1.64-8.16s.55-5.64,1.64-8.16c1.09-2.52,2.6-4.74,4.51-6.65,1.91-1.91,4.13-3.42,6.65-4.51,2.52-1.09,5.24-1.64,8.16-1.64s5.64.55,8.16,1.64c2.52,1.09,4.74,2.6,6.65,4.51,1.91,1.91,3.42,4.13,4.51,6.65,1.09,2.52,1.64,5.24,1.64,8.16s-.55,5.64-1.64,8.16Z"/>
    <path class="cls-1" d="M220.41,145.51c-.91.36-2,.68-3.28.96-1.28.27-2.77.41-4.47.41-3.34,0-6.35-.55-9.02-1.64-2.67-1.09-4.94-2.58-6.79-4.47-1.85-1.88-3.28-4.1-4.28-6.66-1-2.55-1.5-5.29-1.5-8.2s.5-5.65,1.5-8.2c1-2.55,2.42-4.77,4.24-6.66,1.82-1.88,4.04-3.37,6.66-4.47,2.61-1.09,5.53-1.64,8.75-1.64,1.58,0,2.99.11,4.24.32,1.25.21,2.29.47,3.15.78,1.03.3,1.91.67,2.64,1.09l1.28-2.19c-.97-.42-2.01-.82-3.1-1.18-1.03-.3-2.22-.58-3.56-.82-1.34-.24-2.89-.36-4.65-.36-3.1,0-6.06.55-8.89,1.64-2.83,1.09-5.32,2.66-7.47,4.69-2.16,2.04-3.89,4.5-5.2,7.39-1.31,2.89-1.96,6.09-1.96,9.62s.62,6.81,1.87,9.66c1.25,2.86,2.96,5.3,5.15,7.34,2.19,2.04,4.74,3.6,7.66,4.7,2.92,1.09,6.02,1.64,9.3,1.64,1.82,0,3.46-.15,4.92-.46,1.46-.3,2.7-.64,3.74-1,1.15-.42,2.19-.91,3.1-1.46l-1.28-2.19c-.79.55-1.7,1-2.73,1.37Z"/>
    <polygon class="cls-1" points="248.76 126.82 266.08 126.82 266.08 124.63 248.76 124.63 248.76 104.94 266.99 104.94 266.99 102.75 246.39 102.75 246.39 148.97 266.99 148.97 266.99 146.78 248.76 146.78 248.76 126.82"/>
    <path class="cls-1" d="M94.66,116.88c-1.16-1.15-2.51-2.07-4.06-2.73-1.55-.67-3.21-1-4.97-1s-3.42.33-4.97,1c-1.55.67-2.9,1.58-4.06,2.73-1.16,1.16-2.07,2.51-2.73,4.06-.67,1.55-1,3.21-1,4.97s.33,3.42,1,4.97c.67,1.55,1.58,2.9,2.73,4.06,1.15,1.15,2.51,2.07,4.06,2.74s3.2,1,4.97,1,3.42-.33,4.97-1,2.9-1.58,4.06-2.74c1.15-1.15,2.07-2.51,2.73-4.06.67-1.55,1-3.2,1-4.97s-.34-3.42-1-4.97c-.67-1.55-1.58-2.9-2.73-4.06Z"/>
    <path class="cls-1" d="M40.84,145.51c-.91.36-2,.68-3.28.96-1.28.27-2.77.41-4.47.41-3.34,0-6.35-.55-9.02-1.64-2.67-1.09-4.94-2.58-6.79-4.47-1.85-1.88-3.28-4.1-4.28-6.66-1-2.55-1.5-5.29-1.5-8.2s.5-5.65,1.5-8.2c1-2.55,2.42-4.77,4.24-6.66,1.82-1.88,4.04-3.37,6.66-4.47,2.61-1.09,5.53-1.64,8.75-1.64,1.58,0,2.99.11,4.24.32,1.24.21,2.29.47,3.15.78,1.03.3,1.91.67,2.64,1.09l1.28-2.19c-.97-.42-2.01-.82-3.1-1.18-1.03-.3-2.22-.58-3.56-.82-1.34-.24-2.89-.36-4.65-.36-3.1,0-6.06.55-8.89,1.64-2.83,1.09-5.32,2.66-7.47,4.69-2.16,2.04-3.89,4.5-5.2,7.39-1.31,2.89-1.96,6.09-1.96,9.62s.62,6.81,1.87,9.66c1.25,2.86,2.96,5.3,5.15,7.34,2.19,2.04,4.74,3.6,7.66,4.7,2.92,1.09,6.02,1.64,9.3,1.64,1.82,0,3.46-.15,4.92-.46,1.46-.3,2.7-.64,3.74-1,1.15-.42,2.19-.91,3.1-1.46l-1.28-2.19c-.79.55-1.7,1-2.73,1.37Z"/>
    <path class="cls-1" d="M313.78,106.58c-1.7-1.28-3.72-2.23-6.06-2.87-2.34-.64-4.88-.96-7.61-.96h-10.3v46.22h2.37v-14.49h7.93c2.73,0,5.27-.32,7.61-.96,2.34-.64,4.36-1.59,6.06-2.87,1.7-1.28,3.02-2.92,3.97-4.92.94-2.01,1.41-4.37,1.41-7.11s-.47-5.1-1.41-7.11c-.94-2.01-2.26-3.65-3.97-4.92ZM315.23,125.18c-.91,1.76-2.13,3.16-3.65,4.19-1.52,1.03-3.27,1.78-5.24,2.23-1.98.46-4.06.68-6.24.68h-7.93v-27.35h7.93c2.19,0,4.27.23,6.24.68,1.97.46,3.72,1.2,5.24,2.23,1.52,1.03,2.73,2.43,3.65,4.19.91,1.76,1.37,3.95,1.37,6.56s-.46,4.8-1.37,6.56Z"/>
    <polygon class="cls-1" points="336.15 104.94 349.19 104.94 349.19 148.97 351.56 148.97 351.56 104.94 364.59 104.94 364.59 102.75 336.15 102.75 336.15 104.94"/>
    <polygon class="cls-1" points="396.62 98.38 373.92 153.34 376.2 153.34 398.9 98.38 396.62 98.38"/>
    <path class="cls-1" d="M300.92,111.87h-.82v13.49h.82c2.55,0,4.39-.59,5.51-1.78,1.12-1.19,1.69-2.84,1.69-4.97s-.56-3.78-1.69-4.97c-1.13-1.19-2.96-1.78-5.51-1.78Z"/>
    <polygon class="cls-1" points="409.75 125.27 434.27 135.11 409.75 144.96 409.75 147.33 437.1 136.21 437.1 134.02 409.75 122.9 409.75 125.27"/>
    <g>
      <path class="cls-1" d="M249.2,31.03c-1.16-1.15-2.51-2.07-4.06-2.73-1.55-.67-3.21-1-4.97-1s-3.42.33-4.97,1c-1.55.67-2.9,1.58-4.06,2.73-1.16,1.16-2.07,2.51-2.73,4.06-.67,1.55-1,3.21-1,4.97s.33,3.42,1,4.97c.67,1.55,1.58,2.9,2.73,4.06,1.15,1.15,2.51,2.07,4.06,2.74s3.2,1,4.97,1,3.42-.33,4.97-1,2.9-1.58,4.06-2.74c1.15-1.15,2.07-2.51,2.73-4.06.67-1.55,1-3.2,1-4.97s-.34-3.42-1-4.97c-.67-1.55-1.58-2.9-2.73-4.06Z"/>
      <path class="cls-1" d="M310.81,39.96c0-4.44-1.25-7.72-3.74-9.84-2.49-2.13-6.02-3.19-10.57-3.19v26.16c4.56,0,8.08-1.08,10.57-3.24,2.49-2.16,3.74-5.45,3.74-9.89Z"/>
      <path class="cls-1" d="M261.69,49.13c1.22-2.83,1.82-5.85,1.82-9.07s-.61-6.24-1.82-9.07c-1.22-2.83-2.89-5.3-5.01-7.43-2.13-2.13-4.6-3.8-7.43-5.01-2.83-1.21-5.85-1.82-9.07-1.82s-6.24.61-9.07,1.82c-2.83,1.22-5.3,2.89-7.43,5.01-2.13,2.13-3.8,4.6-5.01,7.43-1.22,2.83-1.82,5.85-1.82,9.07s.61,6.24,1.82,9.07c1.22,2.83,2.89,5.3,5.01,7.43,2.13,2.13,4.6,3.8,7.43,5.01,2.83,1.22,5.85,1.82,9.07,1.82s6.24-.61,9.07-1.82c2.83-1.21,5.3-2.89,7.43-5.01,2.13-2.13,3.8-4.6,5.01-7.43ZM248.33,59.38c-2.52,1.09-5.24,1.64-8.16,1.64s-5.64-.55-8.16-1.64c-2.52-1.09-4.74-2.6-6.65-4.51-1.91-1.91-3.42-4.13-4.51-6.66-1.09-2.52-1.64-5.24-1.64-8.16s.55-5.64,1.64-8.16c1.09-2.52,2.6-4.74,4.51-6.65,1.91-1.91,4.13-3.42,6.65-4.51,2.52-1.09,5.24-1.64,8.16-1.64s5.64.55,8.16,1.64c2.52,1.09,4.74,2.6,6.65,4.51,1.91,1.91,3.42,4.13,4.51,6.65,1.09,2.52,1.64,5.24,1.64,8.16s-.55,5.64-1.64,8.16c-1.09,2.52-2.6,4.74-4.51,6.66-1.91,1.91-4.13,3.42-6.65,4.51Z"/>
      <path class="cls-1" d="M170.67,57.06c2.19,2.04,4.74,3.6,7.66,4.7,2.92,1.09,6.02,1.64,9.3,1.64,1.82,0,3.46-.15,4.92-.46,1.46-.3,2.7-.64,3.74-1,1.15-.42,2.19-.91,3.1-1.46l-1.28-2.19c-.79.55-1.7,1-2.73,1.37-.91.36-2,.68-3.28.96-1.28.27-2.77.41-4.47.41-3.34,0-6.35-.55-9.02-1.64-2.67-1.09-4.94-2.58-6.79-4.47-1.85-1.88-3.28-4.1-4.28-6.66-1-2.55-1.5-5.29-1.5-8.2s.5-5.65,1.5-8.2c1-2.55,2.42-4.77,4.24-6.66,1.82-1.88,4.04-3.37,6.66-4.47,2.61-1.09,5.53-1.64,8.75-1.64,1.58,0,2.99.11,4.24.32,1.24.21,2.29.47,3.15.78,1.03.3,1.91.67,2.64,1.09l1.28-2.19c-.97-.42-2.01-.82-3.1-1.18-1.03-.3-2.22-.58-3.56-.82-1.34-.24-2.89-.36-4.65-.36-3.1,0-6.06.55-8.89,1.64-2.83,1.09-5.32,2.66-7.47,4.69-2.16,2.04-3.89,4.5-5.2,7.39-1.31,2.89-1.96,6.09-1.96,9.62s.62,6.81,1.87,9.66c1.25,2.86,2.96,5.3,5.15,7.34Z"/>
      <polygon class="cls-1" points="346.64 40.97 363.96 40.97 363.96 38.78 346.64 38.78 346.64 19.09 364.87 19.09 364.87 16.9 344.27 16.9 344.27 63.12 364.87 63.12 364.87 60.93 346.64 60.93 346.64 40.97"/>
      <polygon class="cls-1" points="147.89 12.52 125.19 67.49 127.47 67.49 150.16 12.52 147.89 12.52"/>
      <path class="cls-1" d="M314.05,57.06c4.53-4.04,6.79-9.74,6.79-17.09s-2.26-13.04-6.79-17.05c-4.53-4.01-11.23-6.02-20.1-6.02h-7.75v46.22h7.75c8.87,0,15.57-2.02,20.1-6.06ZM288.57,19.09h5.38c7.72,0,13.72,1.75,18,5.24,4.28,3.49,6.43,8.71,6.43,15.63s-2.14,12.16-6.43,15.68c-4.28,3.53-10.29,5.29-18,5.29h-5.38V19.09Z"/>
      <path class="cls-5" d="M121.87,42.55l-13.92-8.12,15.66-3.79,2.19-14.97-40.13,9.79-1.64,11.19,35.64,20.88,2.19-14.97ZM115.56,47.9l-25.45-14.97.32-2.17,28.67-7.04-.34,2.35-25.69,6.19,22.84,13.29-.34,2.35Z"/>
      <path class="cls-5" d="M150.51,0l-14.99,3.57-10.68,68.05,14.99-3.57L150.51,0ZM131.9,65.44l9.34-58.73,2.22-.53-9.34,58.73-2.22.53Z"/>
      <path class="cls-7" d="M154.54,40.05c0,4.74.82,9.07,2.46,12.99,1.64,3.92,3.92,7.28,6.84,10.07,2.92,2.8,6.38,4.97,10.39,6.52,4.01,1.55,8.39,2.32,13.13,2.32,3.52,0,6.65-.36,9.39-1.09,2.73-.73,5.07-1.52,7.02-2.37,2.25-1.03,4.19-2.22,5.83-3.56l-9.57-16.86c-.91.91-1.98,1.7-3.19,2.37-1.03.61-2.31,1.16-3.83,1.64-1.52.49-3.25.73-5.2.73s-3.74-.33-5.38-1c-1.64-.67-3.07-1.58-4.28-2.74-1.22-1.15-2.17-2.51-2.87-4.06-.7-1.55-1.05-3.2-1.05-4.97s.33-3.42,1-4.97c.67-1.55,1.6-2.9,2.78-4.06,1.19-1.15,2.57-2.07,4.15-2.73,1.58-.67,3.31-1,5.2-1s3.45.23,4.88.68c1.43.46,2.66.93,3.69,1.41,1.15.67,2.22,1.37,3.19,2.1l9.57-16.86c-1.64-1.15-3.59-2.22-5.83-3.19-1.95-.85-4.27-1.61-6.97-2.28-2.71-.67-5.79-1-9.25-1-4.38,0-8.51.75-12.4,2.23-3.89,1.49-7.29,3.63-10.21,6.43-2.92,2.8-5.23,6.15-6.93,10.07-1.7,3.92-2.55,8.31-2.55,13.17ZM165.61,30.44c1.31-2.89,3.04-5.35,5.2-7.39,2.16-2.03,4.65-3.6,7.47-4.69,2.83-1.09,5.79-1.64,8.89-1.64,1.76,0,3.31.12,4.65.36,1.34.24,2.52.52,3.56.82,1.09.36,2.13.76,3.1,1.18l-1.28,2.19c-.73-.42-1.61-.79-2.64-1.09-.85-.3-1.9-.56-3.15-.78-1.25-.21-2.66-.32-4.24-.32-3.22,0-6.14.55-8.75,1.64-2.61,1.09-4.83,2.58-6.66,4.47-1.82,1.88-3.24,4.1-4.24,6.66-1,2.55-1.5,5.29-1.5,8.2s.5,5.65,1.5,8.2c1,2.55,2.43,4.77,4.28,6.66,1.85,1.88,4.12,3.37,6.79,4.47,2.67,1.09,5.68,1.64,9.02,1.64,1.7,0,3.19-.14,4.47-.41,1.28-.27,2.37-.59,3.28-.96,1.03-.36,1.94-.82,2.73-1.37l1.28,2.19c-.91.55-1.95,1.03-3.1,1.46-1.03.36-2.28.7-3.74,1-1.46.31-3.1.46-4.92.46-3.28,0-6.38-.55-9.3-1.64-2.92-1.09-5.47-2.66-7.66-4.7-2.19-2.03-3.91-4.48-5.15-7.34-1.25-2.86-1.87-6.08-1.87-9.66s.65-6.73,1.96-9.62Z"/>
      <path class="cls-6" d="M261.14,40.05c0-2.92-.55-5.64-1.64-8.16-1.09-2.52-2.6-4.74-4.51-6.65-1.91-1.91-4.13-3.42-6.65-4.51-2.52-1.09-5.24-1.64-8.16-1.64s-5.64.55-8.16,1.64c-2.52,1.09-4.74,2.6-6.65,4.51-1.91,1.91-3.42,4.13-4.51,6.65-1.09,2.52-1.64,5.24-1.64,8.16s.55,5.64,1.64,8.16c1.09,2.52,2.6,4.74,4.51,6.66,1.91,1.91,4.13,3.42,6.65,4.51,2.52,1.09,5.24,1.64,8.16,1.64s5.64-.55,8.16-1.64c2.52-1.09,4.74-2.6,6.65-4.51,1.91-1.91,3.42-4.13,4.51-6.66,1.09-2.52,1.64-5.24,1.64-8.16ZM251.93,45.02c-.67,1.55-1.58,2.9-2.73,4.06-1.16,1.15-2.51,2.07-4.06,2.74s-3.21,1-4.97,1-3.42-.33-4.97-1-2.9-1.58-4.06-2.74c-1.16-1.15-2.07-2.51-2.73-4.06-.67-1.55-1-3.2-1-4.97s.33-3.42,1-4.97c.67-1.55,1.58-2.9,2.73-4.06,1.15-1.15,2.51-2.07,4.06-2.73,1.55-.67,3.2-1,4.97-1s3.42.33,4.97,1c1.55.67,2.9,1.58,4.06,2.73,1.15,1.16,2.07,2.51,2.73,4.06.67,1.55,1,3.21,1,4.97s-.34,3.42-1,4.97Z"/>
      <path class="cls-6" d="M262.74,62.62c2.89-2.89,5.16-6.27,6.84-10.17,1.67-3.89,2.51-8.02,2.51-12.4s-.84-8.51-2.51-12.4c-1.67-3.89-3.95-7.28-6.84-10.16-2.89-2.89-6.28-5.16-10.16-6.84-3.89-1.67-8.02-2.51-12.4-2.51s-8.51.84-12.4,2.51c-3.89,1.67-7.28,3.95-10.16,6.84-2.89,2.89-5.17,6.28-6.84,10.16-1.67,3.89-2.51,8.02-2.51,12.4s.83,8.51,2.51,12.4c1.67,3.89,3.95,7.28,6.84,10.17,2.89,2.89,6.27,5.17,10.16,6.84,3.89,1.67,8.02,2.51,12.4,2.51s8.51-.84,12.4-2.51c3.89-1.67,7.28-3.95,10.16-6.84ZM240.17,63.39c-3.22,0-6.24-.61-9.07-1.82-2.83-1.21-5.3-2.89-7.43-5.01-2.13-2.13-3.8-4.6-5.01-7.43-1.22-2.83-1.82-5.85-1.82-9.07s.61-6.24,1.82-9.07c1.22-2.83,2.89-5.3,5.01-7.43,2.13-2.13,4.6-3.8,7.43-5.01,2.83-1.21,5.85-1.82,9.07-1.82s6.24.61,9.07,1.82c2.83,1.22,5.3,2.89,7.43,5.01,2.13,2.13,3.8,4.6,5.01,7.43,1.22,2.83,1.82,5.85,1.82,9.07s-.61,6.24-1.82,9.07c-1.22,2.83-2.89,5.3-5.01,7.43-2.13,2.13-4.6,3.8-7.43,5.01-2.83,1.22-5.85,1.82-9.07,1.82Z"/>
      <path class="cls-7" d="M309.22,68.45c4.47-1.31,8.23-3.24,11.3-5.79,3.07-2.55,5.41-5.73,7.02-9.53,1.61-3.8,2.42-8.19,2.42-13.17s-.81-9.37-2.42-13.17c-1.61-3.8-3.95-6.97-7.02-9.53-3.07-2.55-6.84-4.47-11.3-5.74-4.47-1.28-9.56-1.91-15.27-1.91h-16.86v60.8h16.86c5.71,0,10.8-.65,15.27-1.96ZM286.2,16.9h7.75c8.87,0,15.57,2.01,20.1,6.02,4.53,4.01,6.79,9.69,6.79,17.05s-2.26,13.05-6.79,17.09c-4.53,4.04-11.23,6.06-20.1,6.06h-7.75V16.9Z"/>
      <path class="cls-7" d="M311.95,55.64c4.28-3.52,6.43-8.75,6.43-15.68s-2.14-12.14-6.43-15.63c-4.28-3.49-10.29-5.24-18-5.24h-5.38v41.84h5.38c7.72,0,13.72-1.76,18-5.29ZM296.5,26.93c4.56,0,8.08,1.06,10.57,3.19,2.49,2.13,3.74,5.41,3.74,9.84s-1.25,7.73-3.74,9.89c-2.49,2.16-6.02,3.24-10.57,3.24v-26.16Z"/>
      <path class="cls-7" d="M371.61,54.46h-17.05v-7.02h16.14v-15.13h-16.14v-6.75h16.41v-15.95h-35.83v60.8h36.46v-15.95ZM364.87,63.12h-20.6V16.9h20.6v2.19h-18.23v19.69h17.32v2.19h-17.32v19.96h18.23v2.19Z"/>
    </g>
    <path class="cls-7" d="M42.3,136.3c-1.03.61-2.31,1.16-3.83,1.64-1.52.49-3.25.73-5.2.73s-3.74-.33-5.38-1c-1.64-.67-3.07-1.58-4.28-2.74-1.22-1.15-2.17-2.51-2.87-4.06-.7-1.55-1.05-3.2-1.05-4.97s.33-3.42,1-4.97c.67-1.55,1.6-2.9,2.78-4.06,1.19-1.15,2.57-2.07,4.15-2.73,1.58-.67,3.31-1,5.2-1s3.45.23,4.88.68c1.43.46,2.66.93,3.69,1.41,1.15.67,2.22,1.37,3.19,2.1l9.57-16.86c-1.64-1.15-3.59-2.22-5.83-3.19-1.95-.85-4.27-1.61-6.97-2.28-2.71-.67-5.79-1-9.25-1-4.38,0-8.51.75-12.4,2.23-3.89,1.49-7.29,3.63-10.21,6.43-2.92,2.8-5.23,6.15-6.93,10.07-1.7,3.92-2.55,8.31-2.55,13.17s.82,9.07,2.46,12.99c1.64,3.92,3.92,7.28,6.84,10.07,2.92,2.8,6.38,4.97,10.39,6.52,4.01,1.55,8.39,2.32,13.13,2.32,3.52,0,6.65-.36,9.39-1.09,2.73-.73,5.07-1.52,7.02-2.37,2.25-1.03,4.19-2.22,5.83-3.56l-9.57-16.86c-.91.91-1.98,1.7-3.19,2.37ZM41.75,147.78c-1.03.36-2.28.7-3.74,1-1.46.31-3.1.46-4.92.46-3.28,0-6.38-.55-9.3-1.64-2.92-1.09-5.47-2.66-7.66-4.7-2.19-2.03-3.91-4.48-5.15-7.34-1.25-2.86-1.87-6.08-1.87-9.66s.65-6.73,1.96-9.62c1.31-2.89,3.04-5.35,5.2-7.39,2.16-2.03,4.65-3.6,7.47-4.69,2.83-1.09,5.79-1.64,8.89-1.64,1.76,0,3.31.12,4.65.36,1.34.24,2.52.52,3.56.82,1.09.36,2.13.76,3.1,1.18l-1.28,2.19c-.73-.42-1.61-.79-2.64-1.09-.85-.3-1.9-.56-3.15-.78-1.25-.21-2.66-.32-4.24-.32-3.22,0-6.14.55-8.75,1.64-2.61,1.09-4.83,2.58-6.66,4.47-1.82,1.88-3.24,4.1-4.24,6.66-1,2.55-1.5,5.29-1.5,8.2s.5,5.65,1.5,8.2c1,2.55,2.43,4.77,4.28,6.66,1.85,1.88,4.12,3.37,6.79,4.47,2.67,1.09,5.68,1.64,9.02,1.64,1.7,0,3.19-.14,4.47-.41,1.28-.27,2.37-.59,3.28-.96,1.03-.36,1.94-.82,2.73-1.37l1.28,2.19c-.91.55-1.95,1.03-3.1,1.46Z"/>
    <path class="cls-3" d="M100.45,111.09c-1.91-1.91-4.13-3.42-6.65-4.51-2.52-1.09-5.24-1.64-8.16-1.64s-5.64.55-8.16,1.64c-2.52,1.09-4.74,2.6-6.65,4.51-1.91,1.91-3.42,4.13-4.51,6.65-1.09,2.52-1.64,5.24-1.64,8.16s.55,5.64,1.64,8.16c1.09,2.52,2.6,4.74,4.51,6.66,1.91,1.91,4.13,3.42,6.65,4.51,2.52,1.09,5.24,1.64,8.16,1.64s5.64-.55,8.16-1.64c2.52-1.09,4.74-2.6,6.65-4.51,1.91-1.91,3.42-4.13,4.51-6.66,1.09-2.52,1.64-5.24,1.64-8.16s-.55-5.64-1.64-8.16c-1.09-2.52-2.6-4.74-4.51-6.65ZM97.39,130.87c-.67,1.55-1.58,2.9-2.73,4.06-1.16,1.15-2.51,2.07-4.06,2.74s-3.21,1-4.97,1-3.42-.33-4.97-1-2.9-1.58-4.06-2.74c-1.16-1.15-2.07-2.51-2.73-4.06-.67-1.55-1-3.2-1-4.97s.33-3.42,1-4.97c.67-1.55,1.58-2.9,2.73-4.06,1.15-1.15,2.51-2.07,4.06-2.73,1.55-.67,3.2-1,4.97-1s3.42.33,4.97,1c1.55.67,2.9,1.58,4.06,2.73,1.15,1.16,2.07,2.51,2.73,4.06.67,1.55,1,3.21,1,4.97s-.34,3.42-1,4.97Z"/>
    <path class="cls-3" d="M108.2,103.34c-2.89-2.89-6.28-5.16-10.16-6.84-3.89-1.67-8.02-2.51-12.4-2.51s-8.51.84-12.4,2.51c-3.89,1.67-7.28,3.95-10.16,6.84-2.89,2.89-5.17,6.28-6.84,10.16-1.67,3.89-2.51,8.02-2.51,12.4s.83,8.51,2.51,12.4c1.67,3.89,3.95,7.28,6.84,10.17,2.89,2.89,6.27,5.17,10.16,6.84,3.89,1.67,8.02,2.51,12.4,2.51s8.51-.84,12.4-2.51c3.89-1.67,7.28-3.95,10.16-6.84,2.89-2.89,5.16-6.27,6.84-10.17,1.67-3.89,2.51-8.02,2.51-12.4s-.84-8.51-2.51-12.4c-1.67-3.89-3.95-7.28-6.84-10.16ZM107.15,134.98c-1.22,2.83-2.89,5.3-5.01,7.43-2.13,2.13-4.6,3.8-7.43,5.01-2.83,1.22-5.85,1.82-9.07,1.82s-6.24-.61-9.07-1.82c-2.83-1.21-5.3-2.89-7.43-5.01-2.13-2.13-3.8-4.6-5.01-7.43-1.22-2.83-1.82-5.85-1.82-9.07s.61-6.24,1.82-9.07c1.22-2.83,2.89-5.3,5.01-7.43,2.13-2.13,4.6-3.8,7.43-5.01,2.83-1.21,5.85-1.82,9.07-1.82s6.24.61,9.07,1.82c2.83,1.22,5.3,2.89,7.43,5.01,2.13,2.13,3.8,4.6,5.01,7.43,1.22,2.83,1.82,5.85,1.82,9.07s-.61,6.24-1.82,9.07Z"/>
    <path class="cls-7" d="M155.27,118.89l-16.77-23.43h-15.95v60.8h19.05v-23.34l16.68,23.34h16.04v-60.8h-19.05v23.43ZM163.47,102.75h2.37v46.22h-2.37l-30.08-42.12v42.12h-2.37v-46.22h2.37l30.08,42.12v-42.12Z"/>
    <path class="cls-7" d="M221.87,136.3c-1.03.61-2.31,1.16-3.83,1.64-1.52.49-3.25.73-5.2.73s-3.74-.33-5.38-1c-1.64-.67-3.07-1.58-4.28-2.74-1.22-1.15-2.17-2.51-2.87-4.06-.7-1.55-1.05-3.2-1.05-4.97s.33-3.42,1-4.97c.67-1.55,1.6-2.9,2.78-4.06,1.19-1.15,2.57-2.07,4.15-2.73,1.58-.67,3.31-1,5.2-1s3.45.23,4.88.68c1.43.46,2.66.93,3.69,1.41,1.15.67,2.22,1.37,3.19,2.1l9.57-16.86c-1.64-1.15-3.59-2.22-5.83-3.19-1.95-.85-4.27-1.61-6.97-2.28-2.71-.67-5.79-1-9.25-1-4.38,0-8.51.75-12.4,2.23-3.89,1.49-7.29,3.63-10.21,6.43-2.92,2.8-5.23,6.15-6.93,10.07-1.7,3.92-2.55,8.31-2.55,13.17s.82,9.07,2.46,12.99c1.64,3.92,3.92,7.28,6.84,10.07,2.92,2.8,6.38,4.97,10.39,6.52s8.39,2.32,13.13,2.32c3.52,0,6.65-.36,9.39-1.09,2.73-.73,5.07-1.52,7.02-2.37,2.25-1.03,4.19-2.22,5.83-3.56l-9.57-16.86c-.91.91-1.98,1.7-3.19,2.37ZM221.32,147.78c-1.03.36-2.28.7-3.74,1-1.46.31-3.1.46-4.92.46-3.28,0-6.38-.55-9.3-1.64-2.92-1.09-5.47-2.66-7.66-4.7-2.19-2.03-3.91-4.48-5.15-7.34-1.25-2.86-1.87-6.08-1.87-9.66s.65-6.73,1.96-9.62c1.31-2.89,3.04-5.35,5.2-7.39,2.16-2.03,4.65-3.6,7.47-4.69,2.83-1.09,5.79-1.64,8.89-1.64,1.76,0,3.31.12,4.65.36,1.34.24,2.52.52,3.56.82,1.09.36,2.13.76,3.1,1.18l-1.28,2.19c-.73-.42-1.61-.79-2.64-1.09-.85-.3-1.9-.56-3.15-.78-1.25-.21-2.66-.32-4.24-.32-3.22,0-6.14.55-8.75,1.64-2.61,1.09-4.83,2.58-6.66,4.47-1.82,1.88-3.24,4.1-4.24,6.66-1,2.55-1.5,5.29-1.5,8.2s.5,5.65,1.5,8.2c1,2.55,2.43,4.77,4.28,6.66,1.85,1.88,4.12,3.37,6.79,4.47,2.67,1.09,5.68,1.64,9.02,1.64,1.7,0,3.19-.14,4.47-.41,1.28-.27,2.37-.59,3.28-.96,1.03-.36,1.94-.82,2.73-1.37l1.28,2.19c-.91.55-1.95,1.03-3.1,1.46Z"/>
    <path class="cls-7" d="M256.69,133.29h16.14v-15.13h-16.14v-6.75h16.41v-15.95h-35.83v60.8h36.46v-15.95h-17.05v-7.02ZM266.99,146.78v2.19h-20.6v-46.22h20.6v2.19h-18.23v19.69h17.32v2.19h-17.32v19.96h18.23Z"/>
    <path class="cls-7" d="M311.59,107.86c-1.52-1.03-3.27-1.78-5.24-2.23-1.98-.46-4.06-.68-6.24-.68h-7.93v27.35h7.93c2.19,0,4.27-.23,6.24-.68,1.97-.46,3.72-1.2,5.24-2.23,1.52-1.03,2.73-2.43,3.65-4.19.91-1.76,1.37-3.95,1.37-6.56s-.46-4.8-1.37-6.56c-.91-1.76-2.13-3.16-3.65-4.19ZM306.44,123.58c-1.13,1.19-2.96,1.78-5.51,1.78h-.82v-13.49h.82c2.55,0,4.39.59,5.51,1.78,1.12,1.19,1.69,2.84,1.69,4.97s-.56,3.78-1.69,4.97Z"/>
    <path class="cls-7" d="M319.84,100.75c-2.52-1.82-5.47-3.16-8.84-4.01-3.37-.85-7.01-1.28-10.89-1.28h-19.42v60.8h19.42v-14.49c3.89,0,7.52-.42,10.89-1.28,3.37-.85,6.32-2.19,8.84-4.01,2.52-1.82,4.51-4.21,5.97-7.16,1.46-2.95,2.19-6.52,2.19-10.71s-.73-7.76-2.19-10.71c-1.46-2.95-3.45-5.33-5.97-7.16ZM317.74,125.72c-.94,2.01-2.26,3.65-3.97,4.92-1.7,1.28-3.72,2.23-6.06,2.87-2.34.64-4.88.96-7.61.96h-7.93v14.49h-2.37v-46.22h10.3c2.73,0,5.27.32,7.61.96,2.34.64,4.36,1.59,6.06,2.87,1.7,1.28,3.02,2.92,3.97,4.92.94,2.01,1.41,4.38,1.41,7.11s-.47,5.1-1.41,7.11Z"/>
    <path class="cls-7" d="M371.61,95.46h-42.48v15.95h11.21v44.85h20.05v-44.85h11.21v-15.95ZM364.59,104.94h-13.04v44.03h-2.37v-44.03h-13.04v-2.19h28.44v2.19Z"/>
    <path class="cls-2" d="M383.04,93.73l-8.1,68.4,14.84-4.14,8.1-68.4-14.84,4.14ZM383.95,155.08l-2.2.61,7.11-59.04,2.2-.61-7.11,59.04Z"/>
    <path class="cls-4" d="M404.83,105.48l-1.89,15.01,14.08,7.83-15.58,4.11-1.89,15.01,39.92-10.61,1.41-11.22-36.06-20.15ZM434.62,131.64l-28.52,7.63.3-2.35,25.56-6.71-23.1-12.82.3-2.35,25.75,14.44-.27,2.17Z"/>
  </g>
</svg>