<svg id="Layer_2" data-name="Layer 2" xmlns="http://www.w3.org/2000/svg" viewBox="0 0 130 57.09">
    <path class="cls-1" fill="#7B4B9D" d="M127.86,53.4l-122.49,3.55s-4.83.89-1.86-1.77l2.97-2.66s-2.32-4.29-3.94-4.73c-1.62-.44-2.46-1.77-2.46-1.77,0,0-.74-.3,2.27-1.63,3.01-1.33,2.91-.64,3.81-2.1s-.45-3.17-.67-3.33-1.67-.68-.06-1.92.61-1.35-.22-2.44-1-1.46-.95-3.27-2.73-2.63-2.73-2.63c0,0-1.51-.75-.17-1.64s.11-1.4.11-1.4c0,0-.73-1.66,1.34-1.77,0,0-1.06-.78-.78-.99s-.78-.36-.67-1.25,1.17-1.3,1.17-1.3c0,0,.33-.78.11-1.35s1-1.14.84-1.66-.5-1.56,1-2.5c1.51-.94,1.12-1.35,1.12-1.35,0,0-.22-.88-2.18-1.46s-2.18-.99-.67-2.6.61-1.66-.61-2.65.45-2.6,2.57-3.07S120.98.07,120.98.07c0,0,2.01-.16,3.29,0s2.73.78,2.73.78c0,0-.45.1-.95.83s.73,1.56.73,1.56c0,0,.33.62-.06,2.34,0,0,1.51.83.78,3.43-.73,2.6-.17,3.59-.17,3.59,0,0,1.28.73-.11,3.95-1.39,3.22.65,4.16.65,4.16,0,0,3.26,3.74-.48,5.87-3.74,2.13-1.79,3.95-1.79,3.95,0,0,.73,1.14,1.45,2.5s.11,2.5.61,3.38,4.8,3.9.28,5.51c0,0,1.98,1.61,2.05,3.48s-3.11,2.29-3.11,2.29c0,0-1.34.47-.61,2.03s1.58,3.68,1.58,3.68Z"/>
</svg>


